<svg width="52" height="52" viewBox="0 0 52 52" fill="none" xmlns="http://www.w3.org/2000/svg">
<path fill-rule="evenodd" clip-rule="evenodd" d="M14.2343 0.67242C13.5255 0.962167 15.8412 7.79011 17.8921 11.4576L18.8719 13.2096L17.7661 14.642C17.1582 15.4297 14.8841 17.8144 12.713 19.9413C8.40211 24.164 7.31839 25.7484 6.571 28.9193C5.91652 31.6955 5.99729 32.5286 6.97516 33.0849L7.80056 33.5547V32.5024C7.80056 30.6743 8.32547 28.5402 9.23055 26.6882C9.94238 25.232 10.891 24.1213 14.2919 20.7609C16.5942 18.4865 18.8046 16.1914 19.2041 15.6607L19.9308 14.6958L20.6575 15.6607C21.057 16.1914 23.2594 18.4865 25.5515 20.7609C27.8438 23.0353 29.9641 25.3616 30.2635 25.93C30.8946 27.1284 30.9751 27.1555 31.6599 26.3987C32.1583 25.8482 32.1581 25.8085 31.6524 24.8695C31.3668 24.3393 29.015 21.7713 26.4257 19.1627C23.8364 16.5545 21.5516 14.0951 21.3484 13.6975C21.014 13.0441 21.049 12.8688 21.7161 11.8606C22.801 10.2214 24.4716 6.19553 25.2579 3.32618C25.8492 1.16783 25.8884 0.791241 25.535 0.655879C24.8036 0.374954 24.0661 0.487985 24.0661 0.880564C24.0661 2.57163 20.6062 11.2497 19.9322 11.2497C19.2454 11.2497 15.7955 2.60195 15.7955 0.880564C15.7955 0.511143 14.916 0.393976 14.2343 0.67242ZM32.8351 9.19942L32.093 9.59641L33.3286 12.3836C35.0235 16.206 35.4542 18.2011 35.3012 21.5215L35.1771 24.212L35.8633 23.1756C37.0082 21.446 37.1091 21.4507 36.9123 23.225C36.6269 25.7966 35.6132 28.2874 33.3499 31.9767C30.7438 36.2242 30.3799 37.0926 30.3702 39.0831C30.3592 41.427 30.8877 42.8321 32.4062 44.4937C36.5401 49.0166 43.7372 47.285 45.4715 41.3503C46.2005 38.8551 45.7505 36.9578 43.606 33.4844C42.6557 31.9452 41.4658 29.922 40.9624 28.9885C40.0102 27.2241 38.9532 23.636 38.9532 22.1691V21.3222L39.681 22.42C40.0813 23.0237 40.5006 23.6206 40.6125 23.7463C40.7245 23.872 40.7565 22.8796 40.6834 21.5408C40.5177 18.5003 40.998 16.3268 42.7001 12.4181C43.389 10.8356 43.8974 9.48558 43.8298 9.41804C43.7623 9.35049 43.3782 9.26972 42.9768 9.23857C42.3094 9.18701 42.1509 9.3946 41.1284 11.6632C39.7794 14.6558 38.9532 17.7096 38.9532 19.7023V21.1744H38.0272H37.1011L36.955 18.9C36.7946 16.399 36.2253 14.4794 34.6304 11.06L33.5773 8.80243L32.8351 9.19942ZM19.6551 18.4118C19.6551 18.5601 17.6271 20.7 15.1487 23.1674C10.0761 28.2166 9.7301 28.801 9.73065 32.3199C9.73092 35.9455 11.9913 39.1801 15.4206 40.4634C17.4912 41.2381 22.6901 41.2941 22.6835 40.5414C22.675 39.5787 22.286 39.4346 19.3794 39.3182C15.981 39.1818 14.8223 38.7117 13.1208 36.7786C11.3828 34.8041 10.9266 32.2653 11.8325 29.6071C12.184 28.5755 12.8211 27.7782 14.7906 25.9052C16.1715 24.5921 17.8891 22.8991 18.6078 22.1429L19.9145 20.7681L21.2323 22.1457C21.9568 22.9033 23.5627 24.4772 24.8005 25.6433C26.0384 26.8095 27.2748 28.1419 27.548 28.6042C28.1308 29.5909 28.2367 29.6162 28.868 28.9188C29.3044 28.4363 29.3086 28.3235 28.9174 27.5671C28.6827 27.1133 27.03 25.3682 25.2447 23.689C23.4593 22.01 21.5642 20.0797 21.0335 19.3996C20.0863 18.1854 19.6551 17.8764 19.6551 18.4118ZM0.181953 24.5896C0.381826 27.4347 1.07518 30.4769 2.10404 33.024L2.77176 34.6773L2.21266 35.8073C1.68417 36.8759 1.67728 37.0071 2.08474 38.2224C2.46161 39.3455 2.54018 39.4293 2.70918 38.8873C2.81559 38.546 2.93441 38.267 2.97356 38.267C3.01271 38.267 3.57566 38.4545 4.2249 38.6836C5.55151 39.1514 5.61547 39.1239 6.03148 37.9026C6.25231 37.2547 6.52165 37.0038 7.06531 36.9393C7.92517 36.8373 7.9271 36.8301 7.38235 35.7767C6.96385 34.9673 5.71637 34.1317 4.92653 34.1317C3.98643 34.1317 2.3869 29.2011 1.95683 24.9767L1.65385 22.0015H0.826785H0L0.181953 24.5896ZM16.7149 26.3824C14.3564 28.6715 13.5671 29.6204 13.3391 30.4414C12.5824 33.1671 13.5307 35.5749 15.8889 36.9151C16.874 37.475 17.4124 37.5679 19.6998 37.5723C21.1648 37.5753 22.4351 37.5067 22.5225 37.4198C22.6102 37.333 22.7549 36.8988 22.844 36.4549L23.0061 35.648L20.3325 35.7365C18.6745 35.7916 17.3545 35.6993 16.858 35.4933C16.0147 35.1443 15.1713 34.1389 14.8482 33.0979C14.6732 32.5347 14.7459 32.4776 15.6392 32.4776C16.3124 32.4776 16.6225 32.603 16.6225 32.8754C16.6225 33.6934 17.7771 34.1317 19.9308 34.1317C22.5479 34.1317 23.239 33.7311 23.239 32.214C23.239 31.2797 23.0574 30.9883 21.7004 29.7483C20.8543 28.975 20.0579 28.3423 19.9308 28.3423C19.8037 28.3423 19.0133 28.9695 18.1747 29.7359C16.6683 31.1127 16.6413 31.124 15.9468 30.6691C15.5603 30.416 15.2441 30.1762 15.2441 30.1365C15.2441 30.0968 16.297 29.1084 17.5836 27.9403L19.9228 25.8165L22.0966 27.7887C24.1295 29.6336 24.6142 30.2437 24.9963 31.441C25.1325 31.8678 25.2256 31.8446 25.8399 31.2301C26.4235 30.6468 26.488 30.4276 26.2562 29.8175C26.0271 29.2157 20.5271 23.6501 19.9697 23.4563C19.8723 23.4227 18.4079 24.7393 16.7149 26.3824ZM34.1295 25.9339C33.2421 27.4361 31.4644 29.184 29.2278 30.7537C26.9873 32.326 26.2167 33.1687 25.1313 35.2345C24.5723 36.2986 24.2602 36.8668 24.2605 39.2319C24.2605 41.7145 24.5563 42.1338 25.2474 43.4455C26.1484 45.1562 27.0293 46.075 28.71 47.089C29.1111 47.331 29.7742 47.6425 29.7742 47.6425C29.7742 47.6425 32.1884 48.793 33.9917 48.691L35.5071 48.6053L34.2067 48.0046C32.2565 47.1036 30.3286 45.1512 29.4191 43.1561C28.7657 41.7236 28.6356 41.0702 28.6367 39.2319C28.6384 36.6162 28.9198 35.8989 31.771 31.2414C33.5494 28.3362 34.9874 25.3875 34.7446 25.1446C34.6933 25.093 34.4165 25.4484 34.1295 25.9339ZM41.7123 26.4095C42.0128 27.2418 43.3096 29.6609 44.5943 31.7853C47.1623 36.0318 47.6666 37.5447 47.4201 40.263C47.1403 43.3501 44.7567 46.7378 42.0941 47.8325C41.4291 48.106 40.8847 48.439 40.8841 48.5728C40.8836 48.7062 41.7823 48.7566 42.8817 48.6847C47.9312 48.3536 51.7043 44.3112 51.7043 39.2319C51.7043 35.5714 50.0907 32.9013 46.4056 30.4634C44.8551 29.4379 42.5884 27.1069 41.5069 25.4261C41.3194 25.1347 41.4118 25.5772 41.7123 26.4095ZM41.9857 34.0727C41.9857 34.0727 43.2995 35.8525 43.606 37.1664C43.8057 38.0226 43.8342 39.2771 43.8342 39.2771C43.8342 41.3349 43.7066 41.629 42.9468 42.71C42.0492 43.987 40.4364 45.1093 40.0681 44.7131C39.4304 44.027 39.5272 43.3595 40.3302 42.9008C41.6819 42.1294 42.3072 40.8519 42.195 39.0919C42.1126 37.7986 41.8457 37.1651 40.3964 34.8187L38.6949 32.0641L39.3063 31.5877C39.643 31.3258 39.9801 31.1132 40.0559 31.1152C40.1318 31.1171 41.0002 32.4481 41.9857 34.0727ZM7.11741 39.9032L6.66556 41.2637L5.54434 40.8681C4.04433 40.3388 4.01235 40.3471 3.80145 41.3076C3.55829 42.4147 4.75422 44.2916 7.1028 46.4886C12.1906 51.248 19.061 52.5735 25.796 50.0954C27.0432 49.6364 28.1708 49.155 28.3017 49.0257C28.4335 48.8956 27.8187 48.7136 26.9233 48.6177C24.2219 48.3288 21.8011 47.8598 20.2247 47.3206C16.5944 46.0786 12.5038 43.1563 10.2817 40.217C9.32566 38.9524 8.87243 38.5722 8.30507 38.5593C7.66327 38.5449 7.51137 38.7167 7.11741 39.9032ZM15.382 42.804C17.1535 44.3495 22.514 46.5376 24.5292 46.5376H25.1523L24.4796 45.5465C24.1099 45.0015 23.6586 44.1447 23.477 43.6424L23.1467 42.7287L19.402 42.6157C17.3426 42.5537 15.4095 42.4081 15.1063 42.2926C14.7272 42.1481 14.8132 42.3078 15.382 42.804ZM36.7582 49.777C36.0816 50.1183 35.1203 50.3973 34.6216 50.3973C33.899 50.3973 33.7151 50.5092 33.7151 50.9486C33.7151 51.4763 33.899 51.5 37.9883 51.5C42.0776 51.5 42.2614 51.4763 42.2614 50.9486C42.2614 50.5075 42.0776 50.3973 41.3431 50.3973C40.8383 50.3973 39.8767 50.1183 39.2066 49.777L37.9883 49.1567L36.7582 49.777Z" fill="#FAFAFA"/>
</svg>
