<svg width="14" height="14" viewBox="0 0 14 14" fill="none" xmlns="http://www.w3.org/2000/svg">
<g id="ph:timer-fill">
<path id="Vector" d="M6.731 2.35581C5.61277 2.35581 4.51966 2.6874 3.58989 3.30865C2.66012 3.9299 1.93545 4.81291 1.50752 5.84602C1.0796 6.87913 0.967633 8.01592 1.18579 9.11266C1.40394 10.2094 1.94242 11.2168 2.73312 12.0075C3.52383 12.7982 4.53125 13.3367 5.62799 13.5549C6.72473 13.773 7.86153 13.6611 8.89463 13.2331C9.92774 12.8052 10.8107 12.0805 11.432 11.1508C12.0533 10.221 12.3848 9.12788 12.3848 8.00965C12.3831 6.51069 11.7869 5.0736 10.727 4.01367C9.66705 2.95374 8.22996 2.35752 6.731 2.35581ZM9.42011 5.98723L7.06434 8.34299C7.02056 8.38677 6.9686 8.42149 6.9114 8.44518C6.85421 8.46887 6.7929 8.48107 6.731 8.48107C6.66909 8.48107 6.60779 8.46887 6.55059 8.44518C6.4934 8.42149 6.44143 8.38677 6.39766 8.34299C6.35388 8.29922 6.31916 8.24725 6.29547 8.19006C6.27177 8.13286 6.25958 8.07156 6.25958 8.00965C6.25958 7.94775 6.27177 7.88644 6.29547 7.82925C6.31916 7.77206 6.35388 7.72009 6.39766 7.67631L8.75342 5.32054C8.7972 5.27677 8.84917 5.24204 8.90636 5.21835C8.96356 5.19466 9.02486 5.18247 9.08677 5.18247C9.14867 5.18247 9.20997 5.19466 9.26717 5.21835C9.32436 5.24204 9.37633 5.27677 9.42011 5.32054C9.46388 5.36432 9.49861 5.41629 9.5223 5.47348C9.54599 5.53068 9.55818 5.59198 9.55818 5.65388C9.55818 5.71579 9.54599 5.77709 9.5223 5.83429C9.49861 5.89148 9.46388 5.94345 9.42011 5.98723ZM4.84638 0.942345C4.84638 0.817387 4.89602 0.697548 4.98438 0.609189C5.07274 0.520831 5.19258 0.471191 5.31754 0.471191H8.14446C8.26942 0.471191 8.38926 0.520831 8.47761 0.609189C8.56597 0.697548 8.61561 0.817387 8.61561 0.942345C8.61561 1.0673 8.56597 1.18714 8.47761 1.2755C8.38926 1.36386 8.26942 1.4135 8.14446 1.4135H5.31754C5.19258 1.4135 5.07274 1.36386 4.98438 1.2755C4.89602 1.18714 4.84638 1.0673 4.84638 0.942345Z" fill="#565656"/>
</g>
</svg>
